<svg width="30" height="30" viewBox="0 0 30 30" fill="none" xmlns="http://www.w3.org/2000/svg">
<path fill-rule="evenodd" clip-rule="evenodd" d="M2.53773 7.99476C5.07526 3.5049 9.77002 0.741923 14.8478 0.750018C20.8231 0.743601 26.1634 4.55537 28.2087 10.2867C30.2541 16.018 28.567 22.4432 23.9879 26.3619C19.4088 30.2807 12.9169 30.8549 7.74572 27.7986L2.20317 29.6866C1.7778 29.8314 1.30879 29.7184 0.99172 29.3947C0.674651 29.0711 0.563968 28.5923 0.705825 28.158L2.55531 22.5C0.00690293 18.0166 0.000196815 12.4846 2.53773 7.99476ZM8.52991 25.4544C10.4185 26.6802 12.6098 27.3319 14.8478 27.3334C20.2498 27.3397 24.9707 23.6116 26.3218 18.2722C27.6729 12.9329 25.3115 7.33719 20.5823 4.67182C15.8532 2.00645 9.95629 2.94776 6.24996 6.95968C2.54363 10.9716 1.9683 17.0361 4.85164 21.6995C5.04086 22.006 5.0854 22.383 4.97297 22.7266L3.69756 26.6325L7.52378 25.3305C7.64384 25.2887 7.76979 25.2673 7.89664 25.2671C8.12085 25.267 8.34045 25.332 8.52991 25.4544Z" fill="black"/>
<ellipse cx="14.8477" cy="15.25" rx="1.18367" ry="1.20833" fill="black"/>
<ellipse cx="10.1131" cy="15.25" rx="1.18367" ry="1.20833" fill="black"/>
<ellipse cx="19.5825" cy="15.25" rx="1.18367" ry="1.20833" fill="black"/>
</svg>
