<svg width="28" height="28" viewBox="0 0 28 28" fill="none" xmlns="http://www.w3.org/2000/svg">
<path d="M26.273 23.5921C26.273 23.5921 24.6316 25.2043 24.2294 25.677C23.5741 26.3762 22.802 26.7065 21.7899 26.7065C21.6926 26.7065 21.5888 26.7064 21.4915 26.7C19.5646 26.577 17.7739 25.8259 16.4309 25.1849C12.7587 23.4109 9.53425 20.8922 6.85475 17.7002C4.64237 15.0391 3.16313 12.5788 2.18345 9.93711C1.58008 8.32493 1.35949 7.06884 1.45681 5.88398C1.52169 5.12645 1.81364 4.49841 2.35214 3.96101L4.56451 1.75316C4.88242 1.45532 5.21979 1.29346 5.55068 1.29346C5.95941 1.29346 6.2903 1.53949 6.49791 1.74668C6.5044 1.75316 6.51089 1.75963 6.51737 1.76611C6.91314 2.13516 7.28943 2.51717 7.6852 2.92507C7.88632 3.13226 8.09394 3.33945 8.30155 3.55311L10.0727 5.32069C10.7605 6.007 10.7605 6.64152 10.0727 7.32783C9.8846 7.51559 9.70294 7.70336 9.51479 7.88465C8.9698 8.44147 9.39792 8.01423 8.83347 8.51925C8.8205 8.5322 8.80752 8.53867 8.80103 8.55162C8.24307 9.10844 8.34688 9.65231 8.46366 10.0214C8.47015 10.0408 8.47664 10.0602 8.48312 10.0796C8.94377 11.1933 9.59256 12.2422 10.5787 13.4918L10.5852 13.4983C12.3759 15.6996 14.2638 17.4154 16.3465 18.7298C16.6125 18.8981 16.885 19.0341 17.1445 19.1636C17.378 19.2801 17.5986 19.3902 17.7868 19.5067C17.8127 19.5197 17.8387 19.5391 17.8646 19.552C18.0852 19.6621 18.2928 19.7139 18.5069 19.7139C19.0454 19.7139 19.3828 19.3772 19.4931 19.2672L20.7648 17.998C20.9854 17.7779 21.3358 17.5124 21.7445 17.5124C22.1467 17.5124 22.4776 17.765 22.6787 17.9851C22.6852 17.9916 22.6852 17.9916 22.6917 17.998L26.2666 21.5656C26.9348 22.226 26.273 23.5921 26.273 23.5921Z" stroke="black" stroke-width="2.5" stroke-linecap="round" stroke-linejoin="round"/>
</svg>
