<svg width="15" height="14" viewBox="0 0 15 14" fill="none" xmlns="http://www.w3.org/2000/svg">
<path fill-rule="evenodd" clip-rule="evenodd" d="M7.57754 0.1875C7.05238 0.1875 6.62665 0.613227 6.62665 1.13839V5.81571H1.85936C1.3413 5.81571 0.921326 6.23569 0.921326 6.75375C0.921326 7.27181 1.3413 7.69179 1.85936 7.69179H6.62665V12.3691C6.62665 12.8943 7.05238 13.32 7.57754 13.32C8.1027 13.32 8.52842 12.8943 8.52842 12.3691V7.69179H13.2957C13.8138 7.69179 14.2337 7.27181 14.2337 6.75375C14.2337 6.23569 13.8138 5.81571 13.2957 5.81571H8.52842V1.13839C8.52842 0.613227 8.1027 0.1875 7.57754 0.1875Z" fill="black"/>
</svg>
